<svg viewBox="0 0 3000 1800" xmlns="http://www.w3.org/2000/svg">
<rect fill="white" height="100%" width="100%"/>
<rect fill="white" height="200" stroke="black" stroke-width="10" width="360" x="50" y="25"/>
<text dominant-baseline="central" fill="black" font-size="28" text-anchor="middle" x="250" y="62">
Employee
</text>
<line stroke="#000" stroke-width="5" x1="50" x2="410" y1="75" y2="75"/>
<line stroke="#000" stroke-width="5" x1="50" x2="410" y1="125" y2="125"/>
<text dominant-baseline="central" fill="black" font-size="28" x="65" y="112">
- id : int
</text>
<text dominant-baseline="central" fill="black" font-size="28" x="65" y="162">
- name : String
</text>
<text dominant-baseline="central" fill="black" font-size="28" x="65" y="212">
+ getFullName() : String
</text>
<rect fill="white" height="200" stroke="black" stroke-width="10" width="510" x="1850" y="50"/>
<text dominant-baseline="central" fill="black" font-size="28" text-anchor="middle" x="2050" y="87">
Department
</text>
<line stroke="#000" stroke-width="5" x1="1850" x2="2360" y1="100" y2="100"/>
<line stroke="#000" stroke-width="5" x1="1850" x2="2360" y1="150" y2="150"/>
<text dominant-baseline="central" fill="black" font-size="28" x="1865" y="137">
- id : int
</text>
<text dominant-baseline="central" fill="black" font-size="28" x="1865" y="187">
- name : String
</text>
<text dominant-baseline="central" fill="black" font-size="28" x="1865" y="237">
+ getEmployees() : ListOfEmployees
</text>
<rect fill="white" height="200" stroke="black" stroke-width="10" width="630" x="50" y="325"/>
<text dominant-baseline="central" fill="black" font-size="28" text-anchor="middle" x="250" y="362">
Project
</text>
<line stroke="#000" stroke-width="5" x1="50" x2="680" y1="375" y2="375"/>
<line stroke="#000" stroke-width="5" x1="50" x2="680" y1="425" y2="425"/>
<text dominant-baseline="central" fill="black" font-size="28" x="65" y="412">
- id : int
</text>
<text dominant-baseline="central" fill="black" font-size="28" x="65" y="462">
- name : String
</text>
<text dominant-baseline="central" fill="black" font-size="28" x="65" y="512">
+ getAssignedEmployees() : ListOfEmployees
</text>
<rect fill="white" height="200" stroke="black" stroke-width="10" width="615" x="1850" y="350"/>
<text dominant-baseline="central" fill="black" font-size="28" text-anchor="middle" x="2050" y="387">
Manager
</text>
<line stroke="#000" stroke-width="5" x1="1850" x2="2465" y1="400" y2="400"/>
<line stroke="#000" stroke-width="5" x1="1850" x2="2465" y1="450" y2="450"/>
<text dominant-baseline="central" fill="black" font-size="28" x="1865" y="437">
- id : int
</text>
<text dominant-baseline="central" fill="black" font-size="28" x="1865" y="487">
- name : String
</text>
<text dominant-baseline="central" fill="black" font-size="28" x="1865" y="537">
+ getManagedEmployees() : ListOfEmployees
</text>
<rect fill="white" height="200" stroke="black" stroke-width="10" width="405" x="50" y="625"/>
<text dominant-baseline="central" fill="black" font-size="28" text-anchor="middle" x="250" y="662">
Task
</text>
<line stroke="#000" stroke-width="5" x1="50" x2="455" y1="675" y2="675"/>
<line stroke="#000" stroke-width="5" x1="50" x2="455" y1="725" y2="725"/>
<text dominant-baseline="central" fill="black" font-size="28" x="65" y="712">
- id : int
</text>
<text dominant-baseline="central" fill="black" font-size="28" x="65" y="762">
- description : String
</text>
<text dominant-baseline="central" fill="black" font-size="28" x="65" y="812">
+ assignToEmployee() : void
</text>
<rect fill="white" height="200" stroke="black" stroke-width="10" width="375" x="1850" y="650"/>
<text dominant-baseline="central" fill="black" font-size="28" text-anchor="middle" x="2050" y="687">
Report
</text>
<line stroke="#000" stroke-width="5" x1="1850" x2="2225" y1="700" y2="700"/>
<line stroke="#000" stroke-width="5" x1="1850" x2="2225" y1="750" y2="750"/>
<text dominant-baseline="central" fill="black" font-size="28" x="1865" y="737">
- id : int
</text>
<text dominant-baseline="central" fill="black" font-size="28" x="1865" y="787">
- content : String
</text>
<text dominant-baseline="central" fill="black" font-size="28" x="1865" y="837">
+ generateReport() : void
</text>
<text dominant-baseline="central" fill="black" font-family="Arial" font-size="18" text-anchor="middle" transform="rotate(-90 900 151)" x="900" y="146">
has▶
</text>
<line stroke="#000" stroke-width="3" x1="900" x2="900" y1="240" y2="63"/>
<defs>
<marker id="arrowhead" markerHeight="7" markerWidth="10" orient="auto" refX="0" refY="1.75">
<polygon points="-10 -5.25, 0 1.75, -10 8.75"/>
</marker>
</defs>
<line stroke="#000" stroke-width="3" x1="1850" x2="900" y1="240" y2="240"/>
<line marker-end="url(#arrowhead)" stroke="#000" stroke-width="3" x1="900" x2="410" y1="63" y2="63"/>
<text dominant-baseline="central" fill="black" font-family="Arial" font-size="18" text-anchor="middle" transform="rotate(90 985 308)" x="985" y="303">
assigned to▶
</text>
<line stroke="#000" stroke-width="3" x1="985" x2="985" y1="101" y2="515"/>
<line stroke="#000" stroke-width="3" x1="410" x2="985" y1="101" y2="101"/>
<line stroke="#000" stroke-width="3" x1="985" x2="680" y1="515" y2="515"/>
<text dominant-baseline="central" fill="black" font-family="Arial" font-size="18" text-anchor="middle" transform="rotate(90 1071 276)" x="1071" y="271">
reports to▶
</text>
<line stroke="#000" stroke-width="3" x1="1071" x2="1071" y1="139" y2="413"/>
<line stroke="#000" stroke-width="3" x1="410" x2="1071" y1="139" y2="139"/>
<line stroke="#000" stroke-width="3" x1="1071" x2="1850" y1="413" y2="413"/>
<text dominant-baseline="central" fill="black" font-family="Arial" font-size="18" text-anchor="middle" transform="rotate(-90 1157 448)" x="1157" y="443">
assigned task
</text>
<line stroke="#000" stroke-width="3" x1="1157" x2="1157" y1="720" y2="177"/>
<line stroke="#000" stroke-width="3" x1="455" x2="1157" y1="720" y2="720"/>
<line stroke="#000" stroke-width="3" x1="1157" x2="410" y1="177" y2="177"/>
<text dominant-baseline="central" fill="black" font-family="Arial" font-size="18" text-anchor="middle" transform="rotate(-90 1242 645)" x="1242" y="640">
assigned by▶
</text>
<line stroke="#000" stroke-width="3" x1="1242" x2="1242" y1="815" y2="476"/>
<line stroke="#000" stroke-width="3" x1="455" x2="1242" y1="815" y2="815"/>
<line stroke="#000" stroke-width="3" x1="1242" x2="1850" y1="476" y2="476"/>
<text dominant-baseline="central" fill="black" font-family="Arial" font-size="18" text-anchor="middle" transform="rotate(-90 1328 480)" x="1328" y="475">
created by▶
</text>
<line stroke="#000" stroke-width="3" x1="1328" x2="1328" y1="745" y2="215"/>
<line stroke="#000" stroke-width="3" x1="1850" x2="1328" y1="745" y2="745"/>
<line stroke="#000" stroke-width="3" x1="1328" x2="410" y1="215" y2="215"/>
<text dominant-baseline="central" fill="black" font-family="Arial" font-size="18" text-anchor="middle" transform="rotate(-90 1414 690)" x="1414" y="685">
reviewed by▶
</text>
<line stroke="#000" stroke-width="3" x1="1414" x2="1414" y1="840" y2="540"/>
<line stroke="#000" stroke-width="3" x1="1850" x2="1414" y1="840" y2="840"/>
<line stroke="#000" stroke-width="3" x1="1414" x2="1850" y1="540" y2="540"/>
</svg>