<svg style="background-color: green" viewBox="0 0 860 500" xmlns="http://www.w3.org/2000/svg">
<rect fill="white" height="100%" width="100%"/>
<text dominant-baseline="central" fill="black" font-family="Arial" font-size="20" text-anchor="middle" x="500" y="90">
Driving
</text>
<rect fill="transparent" fill-opacity="0.3" height="350" rx="10" ry="10" stroke="gray" stroke-width="2" width="700" x="150" y="100"/>
<ellipse cx="325" cy="150" fill="blue" fill-opacity="0.2" rx="112" ry="23" stroke="black" stroke-width="2"/>
<text dominant-baseline="central" fill="black" font-family="Arial" font-size="20" text-anchor="middle" x="325" y="156">
Drive the vehicle
</text>
<ellipse cx="325" cy="200" fill="blue" fill-opacity="0.2" rx="50" ry="23" stroke="black" stroke-width="2"/>
<text dominant-baseline="central" fill="black" font-family="Arial" font-size="20" text-anchor="middle" x="325" y="206">
Park
</text>
<ellipse cx="675" cy="150" fill="blue" fill-opacity="0.2" rx="112" ry="23" stroke="black" stroke-width="2"/>
<text dominant-baseline="central" fill="black" font-family="Arial" font-size="20" text-anchor="middle" x="675" y="156">
Start the vehicle
</text>
<ellipse cx="675" cy="200" fill="blue" fill-opacity="0.2" rx="70" ry="23" stroke="black" stroke-width="2"/>
<text dominant-baseline="central" fill="black" font-family="Arial" font-size="20" text-anchor="middle" x="675" y="206">
Accelerate
</text>
<ellipse cx="675" cy="250" fill="blue" fill-opacity="0.2" rx="50" ry="23" stroke="black" stroke-width="2"/>
<text dominant-baseline="central" fill="black" font-family="Arial" font-size="20" text-anchor="middle" x="675" y="256">
Steer
</text>
<ellipse cx="675" cy="300" fill="blue" fill-opacity="0.2" rx="50" ry="23" stroke="black" stroke-width="2"/>
<text dominant-baseline="central" fill="black" font-family="Arial" font-size="20" text-anchor="middle" x="675" y="306">
Brake
</text>
<text dominant-baseline="central" fill="black" font-family="Arial" font-size="30" text-anchor="middle" x="75" y="320">
Driver
</text>
<circle cx="75" cy="190" fill="none" r="20" stroke="#000" stroke-width="3"/>
<line stroke="#000" stroke-width="3" x1="75" x2="75" y1="210" y2="250"/>
<line stroke="#000" stroke-width="3" x1="45" x2="75" y1="210" y2="230"/>
<line stroke="#000" stroke-width="3" x1="105" x2="75" y1="210" y2="230"/>
<line stroke="#000" stroke-width="3" x1="45" x2="75" y1="290" y2="250"/>
<line stroke="#000" stroke-width="3" x1="105" x2="75" y1="290" y2="250"/>
<line stroke="#000" stroke-width="3" x1="95" x2="213" y1="230" y2="150"/>
<defs>
<marker id="arrowhead" markerHeight="3.5" markerWidth="5" orient="auto" refX="0" refY="1.75">
<polygon points="-5 0, 0 1.75, -5 3.5"/>
</marker>
</defs>
<text dominant-baseline="central" fill="black" font-family="Arial" font-size="18" text-anchor="middle" transform="rotate(16.574007 521 175)" x="521" y="170">
Include
</text>
<line marker-end="url(#arrowhead)" stroke="#000" stroke-width="3" x1="437" x2="605" y1="150" y2="200"/>
<defs>
<marker id="arrowhead" markerHeight="3.5" markerWidth="5" orient="auto" refX="0" refY="1.75">
<polygon points="-5 0, 0 1.75, -5 3.5"/>
</marker>
</defs>
<text dominant-baseline="central" fill="black" font-family="Arial" font-size="18" text-anchor="middle" transform="rotate(28.009176 531 200)" x="531" y="195">
Include
</text>
<line marker-end="url(#arrowhead)" stroke="#000" stroke-width="3" x1="437" x2="625" y1="150" y2="250"/>
<defs>
<marker id="arrowhead" markerHeight="3.5" markerWidth="5" orient="auto" refX="0" refY="1.75">
<polygon points="-5 0, 0 1.75, -5 3.5"/>
</marker>
</defs>
<text dominant-baseline="central" fill="black" font-family="Arial" font-size="18" text-anchor="middle" transform="rotate(38.5854 531 225)" x="531" y="220">
Include
</text>
<line marker-end="url(#arrowhead)" stroke="#000" stroke-width="3" x1="437" x2="625" y1="150" y2="300"/>
<text dominant-baseline="central" fill="black" font-family="Arial" font-size="18" text-anchor="middle" transform="rotate(0 500 150)" x="500" y="145">
Extends
</text>
<line stroke="#000" stroke-width="3" x1="437" x2="563" y1="150" y2="150"/>
<line stroke="#000" stroke-width="3" x1="95" x2="275" y1="230" y2="200"/>
<defs>
<marker id="arrowhead" markerHeight="3.5" markerWidth="5" orient="auto" refX="0" refY="1.75">
<polygon points="-5 0, 0 1.75, -5 3.5"/>
</marker>
</defs>
<text dominant-baseline="central" fill="black" font-family="Arial" font-size="18" text-anchor="middle" transform="rotate(21.80141 500 250)" x="500" y="245">
Include
</text>
<line marker-end="url(#arrowhead)" stroke="#000" stroke-width="3" x1="375" x2="625" y1="200" y2="300"/>
</svg>